<svg xmlns="http://www.w3.org/2000/svg" viewBox="0 0 32 32" width="32" height="32">
  <!-- Abacus frame -->
  <rect x="2" y="4" width="28" height="24" fill="none" stroke="#333333" stroke-width="2" rx="2"/>
  
  <!-- Vertical rods -->
  <line x1="6" y1="6" x2="6" y2="26" stroke="#333333" stroke-width="1"/>
  <line x1="10" y1="6" x2="10" y2="26" stroke="#333333" stroke-width="1"/>
  <line x1="14" y1="6" x2="14" y2="26" stroke="#333333" stroke-width="1"/>
  <line x1="18" y1="6" x2="18" y2="26" stroke="#333333" stroke-width="1"/>
  <line x1="22" y1="6" x2="22" y2="26" stroke="#333333" stroke-width="1"/>
  <line x1="26" y1="6" x2="26" y2="26" stroke="#333333" stroke-width="1"/>
  
  <!-- Horizontal divider -->
  <line x1="4" y1="15" x2="28" y2="15" stroke="#333333" stroke-width="1"/>
  
  <!-- Upper beads (5 beads per rod) -->
  <!-- Rod 1 -->
  <circle cx="6" cy="9" r="1.5" fill="#666666"/>
  <circle cx="6" cy="12" r="1.5" fill="#666666"/>
  
  <!-- Rod 2 -->
  <circle cx="10" cy="8" r="1.5" fill="#666666"/>
  <circle cx="10" cy="11" r="1.5" fill="#666666"/>
  <circle cx="10" cy="14" r="1.5" fill="#666666"/>
  
  <!-- Rod 3 -->
  <circle cx="14" cy="7" r="1.5" fill="#666666"/>
  <circle cx="14" cy="10" r="1.5" fill="#666666"/>
  <circle cx="14" cy="13" r="1.5" fill="#666666"/>
  
  <!-- Rod 4 -->
  <circle cx="18" cy="9" r="1.5" fill="#666666"/>
  <circle cx="18" cy="12" r="1.5" fill="#666666"/>
  
  <!-- Rod 5 -->
  <circle cx="22" cy="8" r="1.5" fill="#666666"/>
  <circle cx="22" cy="11" r="1.5" fill="#666666"/>
  <circle cx="22" cy="14" r="1.5" fill="#666666"/>
  
  <!-- Rod 6 -->
  <circle cx="26" cy="7" r="1.5" fill="#666666"/>
  <circle cx="26" cy="10" r="1.5" fill="#666666"/>
  <circle cx="26" cy="13" r="1.5" fill="#666666"/>
  
  <!-- Lower beads (2 beads per rod) -->
  <!-- Rod 1 -->
  <circle cx="6" cy="18" r="1.5" fill="#333333"/>
  <circle cx="6" cy="21" r="1.5" fill="#333333"/>
  
  <!-- Rod 2 -->
  <circle cx="10" cy="17" r="1.5" fill="#333333"/>
  <circle cx="10" cy="20" r="1.5" fill="#333333"/>
  
  <!-- Rod 3 -->
  <circle cx="14" cy="18" r="1.5" fill="#333333"/>
  <circle cx="14" cy="21" r="1.5" fill="#333333"/>
  
  <!-- Rod 4 -->
  <circle cx="18" cy="17" r="1.5" fill="#333333"/>
  <circle cx="18" cy="20" r="1.5" fill="#333333"/>
  
  <!-- Rod 5 -->
  <circle cx="22" cy="18" r="1.5" fill="#333333"/>
  <circle cx="22" cy="21" r="1.5" fill="#333333"/>
  
  <!-- Rod 6 -->
  <circle cx="26" cy="17" r="1.5" fill="#333333"/>
  <circle cx="26" cy="20" r="1.5" fill="#333333"/>
</svg>
